<mxfile host="app.diagrams.net" modified="2021-09-24T13:07:27.176Z" agent="5.0 (Windows NT 10.0; Win64; x64) AppleWebKit/537.36 (KHTML, like Gecko) Chrome/93.0.4577.82 Safari/537.36" etag="EjLsspm-e7UErRR9dSQz" version="15.2.9" type="gitlab">
  <diagram id="CLDdqxJofeT5q_9-AbDG" name="Page-1">
    <mxGraphModel dx="635" dy="782" grid="1" gridSize="10" guides="1" tooltips="1" connect="1" arrows="1" fold="1" page="1" pageScale="1" pageWidth="850" pageHeight="1100" math="0" shadow="0">
      <root>
        <mxCell id="0" />
        <mxCell id="1" parent="0" />
        <mxCell id="rfoDwUJhKaK4PeqP28oV-5" value="Lexer" style="rounded=1;whiteSpace=wrap;html=1;fillColor=#f8cecc;strokeColor=#b85450;" vertex="1" parent="1">
          <mxGeometry x="440" y="20" width="110" height="60" as="geometry" />
        </mxCell>
        <mxCell id="rfoDwUJhKaK4PeqP28oV-8" value="" style="edgeStyle=orthogonalEdgeStyle;curved=1;rounded=0;orthogonalLoop=1;jettySize=auto;html=1;exitX=0.5;exitY=1;exitDx=0;exitDy=0;" edge="1" parent="1" source="rfoDwUJhKaK4PeqP28oV-5" target="rfoDwUJhKaK4PeqP28oV-11">
          <mxGeometry relative="1" as="geometry">
            <mxPoint x="330" y="110" as="sourcePoint" />
          </mxGeometry>
        </mxCell>
        <mxCell id="rfoDwUJhKaK4PeqP28oV-10" value="" style="edgeStyle=orthogonalEdgeStyle;curved=1;rounded=0;orthogonalLoop=1;jettySize=auto;html=1;entryX=0.5;entryY=0;entryDx=0;entryDy=0;" edge="1" parent="1" source="rfoDwUJhKaK4PeqP28oV-11" target="rfoDwUJhKaK4PeqP28oV-15">
          <mxGeometry relative="1" as="geometry">
            <mxPoint x="670" y="240" as="targetPoint" />
          </mxGeometry>
        </mxCell>
        <mxCell id="rfoDwUJhKaK4PeqP28oV-11" value="&lt;br&gt;Parser" style="whiteSpace=wrap;html=1;verticalAlign=top;strokeColor=#b85450;fillColor=#f8cecc;rounded=1;glass=0;shadow=0;sketch=0;" vertex="1" parent="1">
          <mxGeometry x="435" y="120" width="120" height="60" as="geometry" />
        </mxCell>
        <mxCell id="rfoDwUJhKaK4PeqP28oV-19" value="&lt;h2 style=&quot;box-sizing: inherit ; padding: 0px ; margin: 0px 0px 0.5em ; line-height: 40px ; color: rgb(34 , 34 , 34)&quot;&gt;&lt;span style=&quot;font-size: 12px ; font-weight: normal ; line-height: 123%&quot;&gt;Intermediate Code Generation&lt;/span&gt;&lt;br&gt;&lt;/h2&gt;" style="whiteSpace=wrap;html=1;verticalAlign=top;strokeColor=#b85450;fillColor=#f8cecc;rounded=1;glass=0;shadow=0;sketch=0;" vertex="1" parent="1">
          <mxGeometry x="434" y="312" width="120" height="80" as="geometry" />
        </mxCell>
        <mxCell id="rfoDwUJhKaK4PeqP28oV-20" style="edgeStyle=orthogonalEdgeStyle;curved=1;rounded=0;orthogonalLoop=1;jettySize=auto;html=1;exitX=0.5;exitY=1;exitDx=0;exitDy=0;" edge="1" parent="1" source="rfoDwUJhKaK4PeqP28oV-19" target="rfoDwUJhKaK4PeqP28oV-27">
          <mxGeometry relative="1" as="geometry">
            <mxPoint x="299.9999999999999" y="410.0000000000002" as="sourcePoint" />
          </mxGeometry>
        </mxCell>
        <mxCell id="rfoDwUJhKaK4PeqP28oV-25" value="Symbol Table" style="strokeWidth=2;html=1;shape=mxgraph.flowchart.database;whiteSpace=wrap;rounded=1;shadow=0;glass=0;sketch=0;fillColor=#fff2cc;strokeColor=#d6b656;" vertex="1" parent="1">
          <mxGeometry x="710" y="205" width="80" height="70" as="geometry" />
        </mxCell>
        <mxCell id="rfoDwUJhKaK4PeqP28oV-37" style="edgeStyle=orthogonalEdgeStyle;rounded=0;orthogonalLoop=1;jettySize=auto;html=1;exitX=0.5;exitY=1;exitDx=0;exitDy=0;entryX=0.5;entryY=0;entryDx=0;entryDy=0;" edge="1" parent="1" source="rfoDwUJhKaK4PeqP28oV-27" target="rfoDwUJhKaK4PeqP28oV-28">
          <mxGeometry relative="1" as="geometry" />
        </mxCell>
        <mxCell id="rfoDwUJhKaK4PeqP28oV-27" value="&lt;br&gt;Assembler" style="whiteSpace=wrap;html=1;verticalAlign=top;strokeColor=#b85450;fillColor=#f8cecc;rounded=1;glass=0;shadow=0;sketch=0;" vertex="1" parent="1">
          <mxGeometry x="434" y="440" width="120" height="60" as="geometry" />
        </mxCell>
        <mxCell id="rfoDwUJhKaK4PeqP28oV-28" value="Executable&lt;br&gt;File" style="rhombus;whiteSpace=wrap;html=1;rounded=1;shadow=0;glass=0;sketch=0;fillColor=#dae8fc;strokeColor=#6c8ebf;" vertex="1" parent="1">
          <mxGeometry x="449" y="560" width="90" height="100" as="geometry" />
        </mxCell>
        <mxCell id="rfoDwUJhKaK4PeqP28oV-34" style="edgeStyle=orthogonalEdgeStyle;rounded=0;orthogonalLoop=1;jettySize=auto;html=1;exitX=0.5;exitY=1;exitDx=0;exitDy=0;entryX=0.5;entryY=0;entryDx=0;entryDy=0;" edge="1" parent="1" source="rfoDwUJhKaK4PeqP28oV-15" target="rfoDwUJhKaK4PeqP28oV-19">
          <mxGeometry relative="1" as="geometry" />
        </mxCell>
        <mxCell id="rfoDwUJhKaK4PeqP28oV-15" value="&lt;br&gt;Visitor" style="whiteSpace=wrap;html=1;verticalAlign=top;strokeColor=#b85450;fillColor=#f8cecc;rounded=1;glass=0;shadow=0;sketch=0;" vertex="1" parent="1">
          <mxGeometry x="435" y="210" width="120" height="60" as="geometry" />
        </mxCell>
        <mxCell id="rfoDwUJhKaK4PeqP28oV-31" style="edgeStyle=orthogonalEdgeStyle;rounded=0;orthogonalLoop=1;jettySize=auto;html=1;fillColor=#e1d5e7;strokeColor=#9673a6;curved=1;strokeWidth=3;endArrow=oval;endFill=1;exitX=0;exitY=0.5;exitDx=0;exitDy=0;exitPerimeter=0;entryX=1;entryY=0.5;entryDx=0;entryDy=0;" edge="1" parent="1" source="rfoDwUJhKaK4PeqP28oV-25" target="rfoDwUJhKaK4PeqP28oV-15">
          <mxGeometry relative="1" as="geometry">
            <mxPoint x="750" y="245.0000000000001" as="sourcePoint" />
            <mxPoint x="580" y="250" as="targetPoint" />
          </mxGeometry>
        </mxCell>
        <mxCell id="rfoDwUJhKaK4PeqP28oV-32" style="edgeStyle=orthogonalEdgeStyle;rounded=0;orthogonalLoop=1;jettySize=auto;html=1;fillColor=#e1d5e7;strokeColor=#9673a6;curved=1;strokeWidth=3;endArrow=oval;endFill=1;exitX=0;exitY=0.5;exitDx=0;exitDy=0;exitPerimeter=0;entryX=1;entryY=0.5;entryDx=0;entryDy=0;" edge="1" parent="1" source="rfoDwUJhKaK4PeqP28oV-25" target="rfoDwUJhKaK4PeqP28oV-19">
          <mxGeometry relative="1" as="geometry">
            <mxPoint x="770" y="270.0000000000001" as="sourcePoint" />
            <mxPoint x="680" y="234.9999999999999" as="targetPoint" />
          </mxGeometry>
        </mxCell>
        <mxCell id="rfoDwUJhKaK4PeqP28oV-33" style="edgeStyle=orthogonalEdgeStyle;rounded=0;orthogonalLoop=1;jettySize=auto;html=1;fillColor=#e1d5e7;strokeColor=#9673a6;curved=1;strokeWidth=3;endArrow=oval;endFill=1;entryX=1;entryY=0.5;entryDx=0;entryDy=0;exitX=0;exitY=0.5;exitDx=0;exitDy=0;exitPerimeter=0;" edge="1" parent="1" source="rfoDwUJhKaK4PeqP28oV-25" target="rfoDwUJhKaK4PeqP28oV-11">
          <mxGeometry relative="1" as="geometry">
            <mxPoint x="750" y="190" as="sourcePoint" />
            <mxPoint x="580" y="160" as="targetPoint" />
          </mxGeometry>
        </mxCell>
        <mxCell id="rfoDwUJhKaK4PeqP28oV-40" value="" style="edgeStyle=orthogonalEdgeStyle;rounded=0;orthogonalLoop=1;jettySize=auto;html=1;" edge="1" parent="1" source="rfoDwUJhKaK4PeqP28oV-38" target="rfoDwUJhKaK4PeqP28oV-5">
          <mxGeometry relative="1" as="geometry" />
        </mxCell>
        <mxCell id="rfoDwUJhKaK4PeqP28oV-38" value="src code" style="shape=process;whiteSpace=wrap;html=1;backgroundOutline=1;" vertex="1" parent="1">
          <mxGeometry x="620" y="20" width="120" height="60" as="geometry" />
        </mxCell>
      </root>
    </mxGraphModel>
  </diagram>
</mxfile>
